<svg width="1063" height="577" viewBox="0 0 1063 577" fill="none" xmlns="http://www.w3.org/2000/svg">
<path d="M-24.5 62.5V167.5C-24.5 178 -21.9167 186.083 -16.75 191.75C-11.5833 197.417 -3.99999 200.25 6.00001 200.25C16 200.25 23.6667 197.417 29 191.75C34.3333 186.083 37 178 37 167.5V62.5H79.75V167.25C79.75 182.917 76.4167 196.167 69.75 207C63.0833 217.833 54.0833 226 42.75 231.5C31.5833 237 19.0833 239.75 5.25 239.75C-8.58333 239.75 -21 237.083 -32 231.75C-42.8333 226.25 -51.4167 218.083 -57.75 207.25C-64.0833 196.25 -67.25 182.917 -67.25 167.25V62.5H-24.5ZM217.52 238L181.77 184.25L150.27 238H101.77L158.02 148.75L100.52 62.5H150.27L185.52 115.5L216.52 62.5H265.02L209.27 151L267.27 238H217.52ZM384.23 0.499988L317.23 284.75H275.98L342.98 0.499988H384.23ZM444.512 62.5V167.5C444.512 178 447.095 186.083 452.262 191.75C457.428 197.417 465.012 200.25 475.012 200.25C485.012 200.25 492.678 197.417 498.012 191.75C503.345 186.083 506.012 178 506.012 167.5V62.5H548.762V167.25C548.762 182.917 545.428 196.167 538.762 207C532.095 217.833 523.095 226 511.762 231.5C500.595 237 488.095 239.75 474.262 239.75C460.428 239.75 448.012 237.083 437.012 231.75C426.178 226.25 417.595 218.083 411.262 207.25C404.928 196.25 401.762 182.917 401.762 167.25V62.5H444.512ZM621.781 62.5V238H579.031V62.5H621.781ZM-0.749996 332.5C17.75 332.5 33.9167 336.167 47.75 343.5C61.5833 350.833 72.25 361.167 79.75 374.5C87.4167 387.667 91.25 402.917 91.25 420.25C91.25 437.417 87.4167 452.667 79.75 466C72.25 479.333 61.5 489.667 47.5 497C33.6667 504.333 17.5833 508 -0.749996 508H-66.5V332.5H-0.749996ZM-3.5 471C12.6667 471 25.25 466.583 34.25 457.75C43.25 448.917 47.75 436.417 47.75 420.25C47.75 404.083 43.25 391.5 34.25 382.5C25.25 373.5 12.6667 369 -3.5 369H-23.75V471H-3.5ZM246.891 436C246.891 440 246.641 444.167 246.141 448.5H149.391C150.057 457.167 152.807 463.833 157.641 468.5C162.641 473 168.724 475.25 175.891 475.25C186.557 475.25 193.974 470.75 198.141 461.75H243.641C241.307 470.917 237.057 479.167 230.891 486.5C224.891 493.833 217.307 499.583 208.141 503.75C198.974 507.917 188.724 510 177.391 510C163.724 510 151.557 507.083 140.891 501.25C130.224 495.417 121.891 487.083 115.891 476.25C109.891 465.417 106.891 452.75 106.891 438.25C106.891 423.75 109.807 411.083 115.641 400.25C121.641 389.417 129.974 381.083 140.641 375.25C151.307 369.417 163.557 366.5 177.391 366.5C190.891 366.5 202.891 369.333 213.391 375C223.891 380.667 232.057 388.75 237.891 399.25C243.891 409.75 246.891 422 246.891 436ZM203.141 424.75C203.141 417.417 200.641 411.583 195.641 407.25C190.641 402.917 184.391 400.75 176.891 400.75C169.724 400.75 163.641 402.833 158.641 407C153.807 411.167 150.807 417.083 149.641 424.75H203.141ZM326.443 510C314.277 510 303.443 507.917 293.943 503.75C284.443 499.583 276.943 493.917 271.443 486.75C265.943 479.417 262.86 471.25 262.193 462.25H304.443C304.943 467.083 307.193 471 311.193 474C315.193 477 320.11 478.5 325.943 478.5C331.277 478.5 335.36 477.5 338.193 475.5C341.193 473.333 342.693 470.583 342.693 467.25C342.693 463.25 340.61 460.333 336.443 458.5C332.277 456.5 325.527 454.333 316.193 452C306.193 449.667 297.86 447.25 291.193 444.75C284.527 442.083 278.777 438 273.943 432.5C269.11 426.833 266.693 419.25 266.693 409.75C266.693 401.75 268.86 394.5 273.193 388C277.693 381.333 284.193 376.083 292.693 372.25C301.36 368.417 311.61 366.5 323.443 366.5C340.943 366.5 354.693 370.833 364.693 379.5C374.86 388.167 380.693 399.667 382.193 414H342.693C342.027 409.167 339.86 405.333 336.193 402.5C332.693 399.667 328.027 398.25 322.193 398.25C317.193 398.25 313.36 399.25 310.693 401.25C308.027 403.083 306.693 405.667 306.693 409C306.693 413 308.777 416 312.943 418C317.277 420 323.943 422 332.943 424C343.277 426.667 351.693 429.333 358.193 432C364.693 434.5 370.36 438.667 375.193 444.5C380.193 450.167 382.777 457.833 382.943 467.5C382.943 475.667 380.61 483 375.943 489.5C371.443 495.833 364.86 500.833 356.193 504.5C347.693 508.167 337.777 510 326.443 510ZM430.848 354C423.348 354 417.181 351.833 412.348 347.5C407.681 343 405.348 337.5 405.348 331C405.348 324.333 407.681 318.833 412.348 314.5C417.181 310 423.348 307.75 430.848 307.75C438.181 307.75 444.181 310 448.848 314.5C453.681 318.833 456.098 324.333 456.098 331C456.098 337.5 453.681 343 448.848 347.5C444.181 351.833 438.181 354 430.848 354ZM452.098 368.5V508H409.348V368.5H452.098ZM536.328 366.5C546.161 366.5 554.745 368.5 562.078 372.5C569.578 376.5 575.328 381.75 579.328 388.25V368.5H622.078V507.75C622.078 520.583 619.495 532.167 614.328 542.5C609.328 553 601.578 561.333 591.078 567.5C580.745 573.667 567.828 576.75 552.328 576.75C531.661 576.75 514.911 571.833 502.078 562C489.245 552.333 481.911 539.167 480.078 522.5H522.328C523.661 527.833 526.828 532 531.828 535C536.828 538.167 542.995 539.75 550.328 539.75C559.161 539.75 566.161 537.167 571.328 532C576.661 527 579.328 518.917 579.328 507.75V488C575.161 494.5 569.411 499.833 562.078 504C554.745 508 546.161 510 536.328 510C524.828 510 514.411 507.083 505.078 501.25C495.745 495.25 488.328 486.833 482.828 476C477.495 465 474.828 452.333 474.828 438C474.828 423.667 477.495 411.083 482.828 400.25C488.328 389.417 495.745 381.083 505.078 375.25C514.411 369.417 524.828 366.5 536.328 366.5ZM579.328 438.25C579.328 427.583 576.328 419.167 570.328 413C564.495 406.833 557.328 403.75 548.828 403.75C540.328 403.75 533.078 406.833 527.078 413C521.245 419 518.328 427.333 518.328 438C518.328 448.667 521.245 457.167 527.078 463.5C533.078 469.667 540.328 472.75 548.828 472.75C557.328 472.75 564.495 469.667 570.328 463.5C576.328 457.333 579.328 448.917 579.328 438.25ZM738.256 367C754.589 367 767.589 372.333 777.256 383C787.089 393.5 792.006 408 792.006 426.5V508H749.506V432.25C749.506 422.917 747.089 415.667 742.256 410.5C737.423 405.333 730.923 402.75 722.756 402.75C714.589 402.75 708.089 405.333 703.256 410.5C698.423 415.667 696.006 422.917 696.006 432.25V508H653.256V368.5H696.006V387C700.339 380.833 706.173 376 713.506 372.5C720.839 368.833 729.089 367 738.256 367ZM953.463 436C953.463 440 953.213 444.167 952.713 448.5H855.963C856.63 457.167 859.38 463.833 864.213 468.5C869.213 473 875.296 475.25 882.463 475.25C893.13 475.25 900.546 470.75 904.713 461.75H950.213C947.88 470.917 943.63 479.167 937.463 486.5C931.463 493.833 923.88 499.583 914.713 503.75C905.546 507.917 895.296 510 883.963 510C870.296 510 858.13 507.083 847.463 501.25C836.796 495.417 828.463 487.083 822.463 476.25C816.463 465.417 813.463 452.75 813.463 438.25C813.463 423.75 816.38 411.083 822.213 400.25C828.213 389.417 836.546 381.083 847.213 375.25C857.88 369.417 870.13 366.5 883.963 366.5C897.463 366.5 909.463 369.333 919.963 375C930.463 380.667 938.63 388.75 944.463 399.25C950.463 409.75 953.463 422 953.463 436ZM909.713 424.75C909.713 417.417 907.213 411.583 902.213 407.25C897.213 402.917 890.963 400.75 883.463 400.75C876.296 400.75 870.213 402.833 865.213 407C860.38 411.167 857.38 417.083 856.213 424.75H909.713ZM1019.02 391.75C1024.02 384.083 1030.27 378.083 1037.77 373.75C1045.27 369.25 1053.6 367 1062.77 367V412.25H1051.02C1040.35 412.25 1032.35 414.583 1027.02 419.25C1021.68 423.75 1019.02 431.75 1019.02 443.25V508H976.266V368.5H1019.02V391.75Z" fill="white" fill-opacity="0.02"/>
</svg>
