<svg width="796" height="260" viewBox="0 0 796 260" fill="none" xmlns="http://www.w3.org/2000/svg">
<path d="M134.25 74C134.25 84.1667 131.917 93.5 127.25 102C122.583 110.333 115.417 117.083 105.75 122.25C96.0833 127.417 84.0833 130 69.75 130H43.25V193H0.500001V17.5H69.75C83.75 17.5 95.5833 19.9167 105.25 24.75C114.917 29.5833 122.167 36.25 127 44.75C131.833 53.25 134.25 63 134.25 74ZM66.5 96C74.6667 96 80.75 94.0833 84.75 90.25C88.75 86.4167 90.75 81 90.75 74C90.75 67 88.75 61.5833 84.75 57.75C80.75 53.9167 74.6667 52 66.5 52H43.25V96H66.5ZM199.506 76.75C204.506 69.0833 210.756 63.0833 218.256 58.75C225.756 54.25 234.089 52 243.256 52V97.25H231.506C220.839 97.25 212.839 99.5833 207.506 104.25C202.173 108.75 199.506 116.75 199.506 128.25V193H156.756V53.5H199.506V76.75ZM327.439 195C313.773 195 301.439 192.083 290.439 186.25C279.606 180.417 271.023 172.083 264.689 161.25C258.523 150.417 255.439 137.75 255.439 123.25C255.439 108.917 258.606 96.3333 264.939 85.5C271.273 74.5 279.939 66.0833 290.939 60.25C301.939 54.4167 314.273 51.5 327.939 51.5C341.606 51.5 353.939 54.4167 364.939 60.25C375.939 66.0833 384.606 74.5 390.939 85.5C397.273 96.3333 400.439 108.917 400.439 123.25C400.439 137.583 397.189 150.25 390.689 161.25C384.356 172.083 375.606 180.417 364.439 186.25C353.439 192.083 341.106 195 327.439 195ZM327.439 158C335.606 158 342.523 155 348.189 149C354.023 143 356.939 134.417 356.939 123.25C356.939 112.083 354.106 103.5 348.439 97.5C342.939 91.5 336.106 88.5 327.939 88.5C319.606 88.5 312.689 91.5 307.189 97.5C301.689 103.333 298.939 111.917 298.939 123.25C298.939 134.417 301.606 143 306.939 149C312.439 155 319.273 158 327.439 158ZM444.619 39C437.119 39 430.952 36.8333 426.119 32.5C421.452 28 419.119 22.5 419.119 16C419.119 9.33333 421.452 3.83332 426.119 -0.500012C430.952 -5.00001 437.119 -7.25001 444.619 -7.25001C451.952 -7.25001 457.952 -5.00001 462.619 -0.500012C467.452 3.83332 469.869 9.33333 469.869 16C469.869 22.5 467.452 28 462.619 32.5C457.952 36.8333 451.952 39 444.619 39ZM466.119 211C466.119 228.167 461.786 240.5 453.119 248C444.452 255.667 432.369 259.5 416.869 259.5H400.119V223.25H410.369C415.036 223.25 418.369 222.333 420.369 220.5C422.369 218.667 423.369 215.667 423.369 211.5V53.5H466.119V211ZM628.605 121C628.605 125 628.355 129.167 627.855 133.5H531.105C531.772 142.167 534.522 148.833 539.355 153.5C544.355 158 550.439 160.25 557.605 160.25C568.272 160.25 575.689 155.75 579.855 146.75H625.355C623.022 155.917 618.772 164.167 612.605 171.5C606.605 178.833 599.022 184.583 589.855 188.75C580.689 192.917 570.439 195 559.105 195C545.439 195 533.272 192.083 522.605 186.25C511.939 180.417 503.605 172.083 497.605 161.25C491.605 150.417 488.605 137.75 488.605 123.25C488.605 108.75 491.522 96.0833 497.355 85.25C503.355 74.4167 511.689 66.0833 522.355 60.25C533.022 54.4167 545.272 51.5 559.105 51.5C572.605 51.5 584.605 54.3333 595.105 60C605.605 65.6667 613.772 73.75 619.605 84.25C625.605 94.75 628.605 107 628.605 121ZM584.855 109.75C584.855 102.417 582.355 96.5833 577.355 92.25C572.355 87.9167 566.105 85.75 558.605 85.75C551.439 85.75 545.355 87.8333 540.355 92C535.522 96.1667 532.522 102.083 531.355 109.75H584.855ZM729.158 156.75V193H707.408C691.908 193 679.825 189.25 671.158 181.75C662.492 174.083 658.158 161.667 658.158 144.5V89H641.158V53.5H658.158V19.5H700.908V53.5H728.908V89H700.908V145C700.908 149.167 701.908 152.167 703.908 154C705.908 155.833 709.242 156.75 713.908 156.75H729.158ZM809.971 195C797.804 195 786.971 192.917 777.471 188.75C767.971 184.583 760.471 178.917 754.971 171.75C749.471 164.417 746.387 156.25 745.721 147.25H787.971C788.471 152.083 790.721 156 794.721 159C798.721 162 803.637 163.5 809.471 163.5C814.804 163.5 818.887 162.5 821.721 160.5C824.721 158.333 826.221 155.583 826.221 152.25C826.221 148.25 824.137 145.333 819.971 143.5C815.804 141.5 809.054 139.333 799.721 137C789.721 134.667 781.387 132.25 774.721 129.75C768.054 127.083 762.304 123 757.471 117.5C752.637 111.833 750.221 104.25 750.221 94.75C750.221 86.75 752.387 79.5 756.721 73C761.221 66.3333 767.721 61.0833 776.221 57.25C784.887 53.4167 795.137 51.5 806.971 51.5C824.471 51.5 838.221 55.8333 848.221 64.5C858.387 73.1667 864.221 84.6667 865.721 99H826.221C825.554 94.1667 823.387 90.3333 819.721 87.5C816.221 84.6667 811.554 83.25 805.721 83.25C800.721 83.25 796.887 84.25 794.221 86.25C791.554 88.0833 790.221 90.6667 790.221 94C790.221 98 792.304 101 796.471 103C800.804 105 807.471 107 816.471 109C826.804 111.667 835.221 114.333 841.721 117C848.221 119.5 853.887 123.667 858.721 129.5C863.721 135.167 866.304 142.833 866.471 152.5C866.471 160.667 864.137 168 859.471 174.5C854.971 180.833 848.387 185.833 839.721 189.5C831.221 193.167 821.304 195 809.971 195Z" fill="white" fill-opacity="0.01"/>
</svg>
